# xmcd CD database file
#
# Track frame offsets:
#	150
#	32815
#	53367
#	84820
#	120387
#	132741
#	163780
#	186395
#	221749
#	230488
#	260738
#	289967
#
# Disc length: 4035 seconds
#
# Revision: 0
# Processed by: cddbd v1.5.2PL0 Copyright (c) Steve Scherf et al.
# Submitted via: CDex 1.91
#
DISCID=b00fc10c
DTITLE=Kalman Olah - Sketches of Pangea
DYEAR=2011
DGENRE=Jazz
TTITLE0=Ciudad Del Paraiso
TTITLE1=Addaia
TTITLE2=Remembrance - To My Mother
TTITLE3=Hungarian Sketch No 2
TTITLE4=Interlude1 - Laurasia
TTITLE5=Pedra D'Aigua
TTITLE6=Azur
TTITLE7=Atlantis
TTITLE8=Interlude 2 - Gondwana
TTITLE9=Hungarian Sketch No 4
TTITLE10=Homage to Monk
TTITLE11=Interlude 3 - Panthalassa
EXTD=YEAR: 2011
EXTT0=
EXTT1=
EXTT2=
EXTT3=
EXTT4=
EXTT5=
EXTT6=
EXTT7=
EXTT8=
EXTT9=
EXTT10=
EXTT11=
PLAYORDER=
